<svg id="visual" viewBox="0 0 900 675" width="900" height="675" xmlns="http://www.w3.org/2000/svg" xmlns:xlink="http://www.w3.org/1999/xlink" version="1.1"><g stroke-width="1" stroke-linejoin="bevel"><path d="M474 291.3L406 196.9L390 310.3Z" fill="#008b77" stroke="#008b77"></path><path d="M406 196.9L321 202.9L390 310.3Z" fill="#024351" stroke="#024351"></path><path d="M474 291.3L519 185.9L406 196.9Z" fill="#229977" stroke="#229977"></path><path d="M406 196.9L382 96.4L321 202.9Z" fill="#00101c" stroke="#00101c"></path><path d="M321 202.9L302 272.3L390 310.3Z" fill="#00101c" stroke="#00101c"></path><path d="M319 375.7L397 405.7L390 310.3Z" fill="#00515d" stroke="#00515d"></path><path d="M390 310.3L397 405.7L474 291.3Z" fill="#053644" stroke="#053644"></path><path d="M302 272.3L319 375.7L390 310.3Z" fill="#00515d" stroke="#00515d"></path><path d="M397 405.7L507 390.7L474 291.3Z" fill="#062937" stroke="#062937"></path><path d="M608 306.3L575 179.9L519 185.9Z" fill="#229977" stroke="#229977"></path><path d="M485 100.4L382 96.4L406 196.9Z" fill="#006e6f" stroke="#006e6f"></path><path d="M519 185.9L485 100.4L406 196.9Z" fill="#00101c" stroke="#00101c"></path><path d="M608 306.3L519 185.9L474 291.3Z" fill="#053644" stroke="#053644"></path><path d="M519 185.9L575 179.9L485 100.4Z" fill="#008b77" stroke="#008b77"></path><path d="M594 362.7L608 306.3L474 291.3Z" fill="#061d29" stroke="#061d29"></path><path d="M507 390.7L594 362.7L474 291.3Z" fill="#00101c" stroke="#00101c"></path><path d="M382 96.4L287 98.4L321 202.9Z" fill="#00101c" stroke="#00101c"></path><path d="M200 176.9L187 271.3L302 272.3Z" fill="#062937" stroke="#062937"></path><path d="M320 493.1L383 486.1L397 405.7Z" fill="#229977" stroke="#229977"></path><path d="M397 405.7L503 495.1L507 390.7Z" fill="#053644" stroke="#053644"></path><path d="M507 390.7L622 491.1L594 362.7Z" fill="#229977" stroke="#229977"></path><path d="M200 176.9L302 272.3L321 202.9Z" fill="#024351" stroke="#024351"></path><path d="M302 272.3L220 402.7L319 375.7Z" fill="#229977" stroke="#229977"></path><path d="M319 375.7L320 493.1L397 405.7Z" fill="#008b77" stroke="#008b77"></path><path d="M287 98.4L200 176.9L321 202.9Z" fill="#062937" stroke="#062937"></path><path d="M691 117.4L601 85.4L575 179.9Z" fill="#024351" stroke="#024351"></path><path d="M575 179.9L601 85.4L485 100.4Z" fill="#007c75" stroke="#007c75"></path><path d="M485 100.4L391 0L382 96.4Z" fill="#061d29" stroke="#061d29"></path><path d="M382 96.4L285 0L287 98.4Z" fill="#00101c" stroke="#00101c"></path><path d="M187 271.3L220 402.7L302 272.3Z" fill="#00515d" stroke="#00515d"></path><path d="M383 486.1L503 495.1L397 405.7Z" fill="#006e6f" stroke="#006e6f"></path><path d="M220 402.7L320 493.1L319 375.7Z" fill="#008b77" stroke="#008b77"></path><path d="M383 486.1L418 584.6L503 495.1Z" fill="#061d29" stroke="#061d29"></path><path d="M493 0L391 0L485 100.4Z" fill="#061d29" stroke="#061d29"></path><path d="M287 98.4L198 94.4L200 176.9Z" fill="#005f67" stroke="#005f67"></path><path d="M701 385.7L687 267.3L608 306.3Z" fill="#005f67" stroke="#005f67"></path><path d="M608 306.3L687 267.3L575 179.9Z" fill="#061d29" stroke="#061d29"></path><path d="M701 385.7L608 306.3L594 362.7Z" fill="#007c75" stroke="#007c75"></path><path d="M601 85.4L493 0L485 100.4Z" fill="#053644" stroke="#053644"></path><path d="M217 0L198 94.4L287 98.4Z" fill="#229977" stroke="#229977"></path><path d="M110 169.9L114 311.3L187 271.3Z" fill="#053644" stroke="#053644"></path><path d="M391 0L285 0L382 96.4Z" fill="#062937" stroke="#062937"></path><path d="M687 267.3L711 193.9L575 179.9Z" fill="#00515d" stroke="#00515d"></path><path d="M711 193.9L691 117.4L575 179.9Z" fill="#053644" stroke="#053644"></path><path d="M601 85.4L589 0L493 0Z" fill="#007c75" stroke="#007c75"></path><path d="M681 0L589 0L601 85.4Z" fill="#007c75" stroke="#007c75"></path><path d="M622 491.1L701 385.7L594 362.7Z" fill="#00101c" stroke="#00101c"></path><path d="M687 267.3L819 212.9L711 193.9Z" fill="#007c75" stroke="#007c75"></path><path d="M503 495.1L622 491.1L507 390.7Z" fill="#00101c" stroke="#00101c"></path><path d="M220 402.7L207 480.1L320 493.1Z" fill="#00101c" stroke="#00101c"></path><path d="M117 478.1L207 480.1L220 402.7Z" fill="#00101c" stroke="#00101c"></path><path d="M110 169.9L187 271.3L200 176.9Z" fill="#061d29" stroke="#061d29"></path><path d="M187 271.3L114 311.3L220 402.7Z" fill="#008b77" stroke="#008b77"></path><path d="M79 111.4L110 169.9L198 94.4Z" fill="#024351" stroke="#024351"></path><path d="M198 94.4L110 169.9L200 176.9Z" fill="#062937" stroke="#062937"></path><path d="M309 565.6L418 584.6L383 486.1Z" fill="#005f67" stroke="#005f67"></path><path d="M503 495.1L525 582.6L622 491.1Z" fill="#062937" stroke="#062937"></path><path d="M309 565.6L383 486.1L320 493.1Z" fill="#008b77" stroke="#008b77"></path><path d="M207 480.1L309 565.6L320 493.1Z" fill="#062937" stroke="#062937"></path><path d="M285 0L217 0L287 98.4Z" fill="#062937" stroke="#062937"></path><path d="M0 292.3L100 369.7L114 311.3Z" fill="#008b77" stroke="#008b77"></path><path d="M114 311.3L100 369.7L220 402.7Z" fill="#007c75" stroke="#007c75"></path><path d="M418 584.6L525 582.6L503 495.1Z" fill="#061d29" stroke="#061d29"></path><path d="M677 582.6L710 470.1L622 491.1Z" fill="#007c75" stroke="#007c75"></path><path d="M622 491.1L710 470.1L701 385.7Z" fill="#008b77" stroke="#008b77"></path><path d="M701 385.7L807 304.3L687 267.3Z" fill="#024351" stroke="#024351"></path><path d="M777 0L681 0L691 117.4Z" fill="#229977" stroke="#229977"></path><path d="M691 117.4L681 0L601 85.4Z" fill="#007c75" stroke="#007c75"></path><path d="M525 582.6L619 569.6L622 491.1Z" fill="#00515d" stroke="#00515d"></path><path d="M102 0L79 111.4L198 94.4Z" fill="#008b77" stroke="#008b77"></path><path d="M110 169.9L0 292.3L114 311.3Z" fill="#006e6f" stroke="#006e6f"></path><path d="M100 369.7L117 478.1L220 402.7Z" fill="#229977" stroke="#229977"></path><path d="M207 480.1L207 567.6L309 565.6Z" fill="#229977" stroke="#229977"></path><path d="M117 478.1L207 567.6L207 480.1Z" fill="#00101c" stroke="#00101c"></path><path d="M309 565.6L389 675L418 584.6Z" fill="#00515d" stroke="#00515d"></path><path d="M813 364.7L807 304.3L701 385.7Z" fill="#008b77" stroke="#008b77"></path><path d="M711 193.9L808 100.4L691 117.4Z" fill="#005f67" stroke="#005f67"></path><path d="M807 304.3L819 212.9L687 267.3Z" fill="#005f67" stroke="#005f67"></path><path d="M773 492.1L813 364.7L701 385.7Z" fill="#062937" stroke="#062937"></path><path d="M807 304.3L900 270.3L819 212.9Z" fill="#062937" stroke="#062937"></path><path d="M773 492.1L701 385.7L710 470.1Z" fill="#053644" stroke="#053644"></path><path d="M217 0L102 0L198 94.4Z" fill="#229977" stroke="#229977"></path><path d="M601 675L677 582.6L619 569.6Z" fill="#229977" stroke="#229977"></path><path d="M619 569.6L677 582.6L622 491.1Z" fill="#00101c" stroke="#00101c"></path><path d="M601 675L619 569.6L525 582.6Z" fill="#229977" stroke="#229977"></path><path d="M819 212.9L808 100.4L711 193.9Z" fill="#007c75" stroke="#007c75"></path><path d="M309 675L389 675L309 565.6Z" fill="#00515d" stroke="#00515d"></path><path d="M418 584.6L502 675L525 582.6Z" fill="#006e6f" stroke="#006e6f"></path><path d="M677 582.6L773 492.1L710 470.1Z" fill="#062937" stroke="#062937"></path><path d="M100 369.7L0 394.7L117 478.1Z" fill="#061d29" stroke="#061d29"></path><path d="M0 172.9L0 292.3L110 169.9Z" fill="#00101c" stroke="#00101c"></path><path d="M0 172.9L110 169.9L79 111.4Z" fill="#005f67" stroke="#005f67"></path><path d="M389 675L502 675L418 584.6Z" fill="#061d29" stroke="#061d29"></path><path d="M0 69.4L0 172.9L79 111.4Z" fill="#008b77" stroke="#008b77"></path><path d="M181 675L309 675L207 567.6Z" fill="#00515d" stroke="#00515d"></path><path d="M207 567.6L309 675L309 565.6Z" fill="#006e6f" stroke="#006e6f"></path><path d="M808 100.4L777 0L691 117.4Z" fill="#024351" stroke="#024351"></path><path d="M0 292.3L0 394.7L100 369.7Z" fill="#053644" stroke="#053644"></path><path d="M117 478.1L89 587.6L207 567.6Z" fill="#007c75" stroke="#007c75"></path><path d="M502 675L601 675L525 582.6Z" fill="#006e6f" stroke="#006e6f"></path><path d="M677 582.6L808 559.6L773 492.1Z" fill="#062937" stroke="#062937"></path><path d="M102 0L0 69.4L79 111.4Z" fill="#062937" stroke="#062937"></path><path d="M0 475.1L89 587.6L117 478.1Z" fill="#008b77" stroke="#008b77"></path><path d="M0 394.7L0 475.1L117 478.1Z" fill="#005f67" stroke="#005f67"></path><path d="M900 373.7L900 270.3L807 304.3Z" fill="#062937" stroke="#062937"></path><path d="M819 212.9L900 96.4L808 100.4Z" fill="#062937" stroke="#062937"></path><path d="M808 100.4L900 0L777 0Z" fill="#061d29" stroke="#061d29"></path><path d="M900 373.7L807 304.3L813 364.7Z" fill="#024351" stroke="#024351"></path><path d="M900 270.3L900 217.9L819 212.9Z" fill="#006e6f" stroke="#006e6f"></path><path d="M89 587.6L181 675L207 567.6Z" fill="#024351" stroke="#024351"></path><path d="M689 675L808 559.6L677 582.6Z" fill="#007c75" stroke="#007c75"></path><path d="M900 475.1L900 373.7L813 364.7Z" fill="#061d29" stroke="#061d29"></path><path d="M900 475.1L813 364.7L773 492.1Z" fill="#024351" stroke="#024351"></path><path d="M102 0L0 0L0 69.4Z" fill="#229977" stroke="#229977"></path><path d="M601 675L689 675L677 582.6Z" fill="#229977" stroke="#229977"></path><path d="M900 217.9L900 96.4L819 212.9Z" fill="#053644" stroke="#053644"></path><path d="M900 586.6L900 475.1L808 559.6Z" fill="#053644" stroke="#053644"></path><path d="M808 559.6L900 475.1L773 492.1Z" fill="#007c75" stroke="#007c75"></path><path d="M0 675L97 675L89 587.6Z" fill="#00515d" stroke="#00515d"></path><path d="M89 587.6L97 675L181 675Z" fill="#005f67" stroke="#005f67"></path><path d="M0 475.1L0 588.6L89 587.6Z" fill="#062937" stroke="#062937"></path><path d="M900 96.4L900 0L808 100.4Z" fill="#00101c" stroke="#00101c"></path><path d="M689 675L823 675L808 559.6Z" fill="#00515d" stroke="#00515d"></path><path d="M823 675L900 586.6L808 559.6Z" fill="#006e6f" stroke="#006e6f"></path><path d="M0 588.6L0 675L89 587.6Z" fill="#062937" stroke="#062937"></path><path d="M823 675L900 675L900 586.6Z" fill="#00515d" stroke="#00515d"></path></g></svg>